
        <svg xmlns="http://www.w3.org/2000/svg" xmlns:xlink="http://www.w3.org/1999/xlink" version="1.1" width="3257.510729613734" 
        height="1214.2146130999781" viewBox="0 0 3257.510729613734 1214.2146130999781">
			
			<g transform="scale(12.875536480686696) translate(10, 10)">
				<defs id="SvgjsDefs1949"></defs><g id="SvgjsG1950" featureKey="nameContainer" transform="matrix(1,0,0,1,0,0)" fill="#ffffff">    <path xmlns="http://www.w3.org/2000/svg" fill-rule="nonzero" d="             M0,0             H233             V44             H0,0             z             M4,4             v36             h225             v-36             z     "></path></g><g id="SvgjsG1951" featureKey="nameFeature-0" transform="matrix(0.5430052610263144,0,0,0.5430052610263144,15.939347565126495,8.092848919988255)" fill="#ffffff"><path d="M37.715 40 l-7.4414 0 l-1.875 -20.234 l-6.0742 20.234 l-4.9219 0 l-6.0742 -20.332 l-1.8945 20.332 l-7.4805 0 l2.5195 -28.711 l10.879 0 l4.4922 14.668 l4.5508 -14.668 l10.84 0 z M42.8906 40 l0 -28.711 l7.4414 0 l0 28.711 l-7.4414 0 z M80.48815625 40 l-8.8281 0 l-7.4805 -12.305 l0 12.305 l-7.4414 0 l0 -28.711 l10.996 0 c6.875 0 9.6094 3.9453 9.6094 8.8672 c0 4.043 -2.3828 6.4063 -5.8203 7.1484 z M70.25415625 20.234 c0 -1.7578 -0.99609 -2.8711 -3.75 -2.8711 l-2.3242 0 l0 5.7617 l2.3242 0 c2.7539 0 3.75 -1.1328 3.75 -2.8906 z M96.67928125 40.39063 c-8.6719 0 -14.902 -5.8398 -14.902 -14.746 c0 -8.9258 6.2305 -14.766 14.902 -14.766 c6.8555 0 12.207 3.5938 14.121 9.4336 l-6.9531 2.4414 c-0.95703 -3.2031 -3.7109 -5.1172 -7.168 -5.1172 c-4.3164 0 -7.5195 3.0859 -7.5195 8.0078 s3.2031 7.9883 7.5195 7.9883 c3.457 0 6.2109 -1.9141 7.168 -5.1172 l6.9531 2.4414 c-1.9141 5.8398 -7.2656 9.4336 -14.121 9.4336 z M132.8315625 11.289000000000001 l7.4414 0 l0 28.711 l-7.4414 0 l0 -11.191 l-10.586 0 l0 11.191 l-7.4414 0 l0 -28.711 l7.4414 0 l0 11.113 l10.586 0 l0 -11.113 z M164.1215625 17.754 l-10 0 l0 4.6875 l8.9063 0 l0 6.4063 l-8.9063 0 l0 4.6289 l10 0 l0 6.5234 l-17.441 0 l0 -28.711 l17.441 0 l0 6.4648 z M188.3594375 11.289000000000001 l7.9297 0 l-10.645 28.711 l-8.3594 0 l-10.566 -28.711 l7.9297 0 l6.8555 20.176 z M222.715 11.289000000000001 c5.8789 0 9.4727 4.3164 9.4727 9.5898 c0 5.4102 -3.5938 9.3945 -9.4727 9.3945 l-5.1953 0 l0 9.7266 l-7.4414 0 l0 -28.711 l12.637 0 z M221.426 24.121000000000002 c2.6563 0 3.6914 -1.25 3.6914 -3.3594 c0 -1.9922 -1.0352 -3.3203 -3.6914 -3.3203 l-3.9063 0 l0 6.6797 l3.9063 0 z M255.99640625 40 l-1.8555 -5.3125 l-11.484 0 l-1.8359 5.3125 l-7.5586 0 l10.566 -28.711 l9.1602 0 l10.566 28.711 l-7.5586 0 z M244.78540625 28.555 l7.2266 0 l-3.6133 -10.391 z M276.914 40.39063 c-6.2891 0 -11.406 -3.0273 -12.207 -8.7891 l7.7148 -1.7578 c0.21484 3.125 2.168 4.5898 4.8047 4.5898 c1.9141 0 3.0859 -0.91797 3.0859 -2.5586 c0 -2.1484 -2.7539 -2.9492 -5.957 -4.043 c-4.043 -1.3477 -8.5742 -3.0273 -8.5742 -8.3203 c0 -5.3516 4.3359 -8.6328 10.527 -8.6328 c5.0391 0 10.527 1.9922 11.719 7.9297 l-7.1484 1.7578 c-0.41016 -2.5977 -1.7773 -3.7305 -4.082 -3.7305 c-2.0508 0 -3.4961 0.80078 -3.4961 2.4805 c0 1.6016 2.5781 2.2461 5.5273 3.2031 c4.1211 1.3672 9.1992 3.2422 9.1992 8.9258 c0 6.3086 -5.3125 8.9453 -11.113 8.9453 z M305.62459375 40.39063 c-8.6719 0 -14.902 -5.8398 -14.902 -14.746 c0 -8.9258 6.2305 -14.766 14.902 -14.766 c6.8555 0 12.207 3.5938 14.121 9.4336 l-6.9531 2.4414 c-0.95703 -3.2031 -3.7109 -5.1172 -7.168 -5.1172 c-4.3164 0 -7.5195 3.0859 -7.5195 8.0078 s3.2031 7.9883 7.5195 7.9883 c3.457 0 6.2109 -1.9141 7.168 -5.1172 l6.9531 2.4414 c-1.9141 5.8398 -7.2656 9.4336 -14.121 9.4336 z M343.476875 40 l-1.8555 -5.3125 l-11.484 0 l-1.8359 5.3125 l-7.5586 0 l10.566 -28.711 l9.1602 0 l10.566 28.711 l-7.5586 0 z M332.265875 28.555 l7.2266 0 l-3.6133 -10.391 z M361.87546875 33.4766 l8.3984 0 l0 6.5234 l-15.84 0 l0 -28.711 l7.4414 0 l0 22.188 z"></path></g><g id="SvgjsG1952" featureKey="sloganFeature-0" transform="matrix(0.8,0,0,0.8,45.2,58.30400009155274)" fill="#ffffff"><path d="M1.26 20 c-0.14 0 -0.26 -0.12 -0.26 -0.26 l0 -11.98 c0 -0.14 0.12 -0.26 0.26 -0.26 l2.6 0 c0.14 0 0.26 0.12 0.26 0.26 l0 4.92 l4.52 0 l0 -4.92 c0 -0.14 0.12 -0.26 0.26 -0.26 l2.6 0 c0.14 0 0.26 0.12 0.26 0.26 l0 11.98 c0 0.14 -0.12 0.26 -0.26 0.26 l-2.6 0 c-0.14 0 -0.26 -0.12 -0.26 -0.26 l0 -4.3 l-4.52 0 l0 4.3 c0 0.14 -0.12 0.26 -0.26 0.26 l-2.6 0 z M16.968 20 c-0.14 0 -0.26 -0.12 -0.26 -0.26 l0 -11.98 c0 -0.14 0.12 -0.26 0.26 -0.26 l2.6 0 c0.14 0 0.26 0.12 0.26 0.26 l0 11.98 c0 0.14 -0.12 0.26 -0.26 0.26 l-2.6 0 z M25.036 20 c-0.16 0 -0.26 -0.12 -0.26 -0.26 l0 -11.98 c0 -0.14 0.1 -0.26 0.26 -0.26 l4.88 0 c1.52 0 2.72 0.38 3.56 1.16 c1.24 1.12 1.66 3.24 1.06 4.8 c-0.22 0.56 -0.6 1.08 -1.08 1.46 c-0.28 0.22 -0.58 0.38 -0.88 0.54 c0.86 1.36 2.16 4.12 2.16 4.12 c0.02 0.04 0.06 0.1 0.06 0.16 c0 0.14 -0.12 0.26 -0.26 0.26 l-2.96 0 c-0.08 0 -0.18 -0.06 -0.22 -0.14 l-1.74 -3.82 c-0.62 0.04 -1.1 0.02 -1.74 0.02 l0 3.68 c0 0.14 -0.12 0.26 -0.26 0.26 l-2.58 0 z M27.875999999999998 13.280000000000001 c0 0 2.52 0.28 3.4 -0.3 c0.34 -0.22 0.54 -0.76 0.54 -1.16 c-0.02 -0.44 -0.24 -0.9 -0.6 -1.18 c-0.38 -0.32 -1.32 -0.42 -1.8 -0.42 l-1.54 0.04 l0 3.02 z M39.764 20 l0 -11.98 c0 -0.5 0.1 -0.6 0.26 -0.6 l8.76 0 c0.14 0 0.26 0.1 0.26 0.24 l0 2.26 c0 0.14 -0.12 0.26 -0.26 0.26 l-5.92 0 l0 2.08 l3.74 0 c0.14 0 0.26 0.12 0.26 0.26 l0 2.24 c0 0.14 -0.12 0.26 -0.26 0.26 l-3.74 0 l0 2.14 l5.9 0 c0.14 0 0.26 0.12 0.26 0.26 l0 2.24 c0 0.14 -0.12 0.26 -0.26 0.26 l-8.74 0 c-0.16 0 -0.26 -0.12 -0.26 0.08 z M66.84 20 c-0.14 0 -0.24 -0.12 -0.24 -0.26 l0 -4.76 l-4.24 -7.1 c-0.04 -0.08 -0.04 -0.18 0.02 -0.26 c0.04 -0.08 0.12 -0.12 0.22 -0.12 l2.6 0 c0.1 0 0.18 0.04 0.22 0.14 l2.72 4.44 l2.66 -4.44 c0.04 -0.08 0.12 -0.14 0.22 -0.14 l2.62 0 c0.08 0 0.18 0.04 0.22 0.12 s0.04 0.18 0 0.26 l-4.16 7.02 l0 4.84 c0 0.14 -0.12 0.26 -0.26 0.26 l-2.6 0 z M83.668 20 c-1.2 0 -2.3 -0.28 -3.26 -0.84 c-0.98 -0.56 -1.76 -1.36 -2.34 -2.32 c-0.56 -0.98 -0.84 -2.1 -0.84 -3.3 c0 -1.18 0.28 -2.28 0.84 -3.26 c0.58 -0.98 1.34 -1.76 2.32 -2.32 s2.08 -0.84 3.28 -0.84 c1.18 0 2.28 0.28 3.26 0.84 s1.76 1.34 2.32 2.32 c0.58 0.98 0.86 2.08 0.86 3.26 c0 1.2 -0.28 2.3 -0.86 3.28 c-0.56 0.98 -1.34 1.76 -2.32 2.34 c-0.98 0.56 -2.08 0.84 -3.26 0.84 z M83.70800000000001 17.12 c0.58 0 1.12 -0.16 1.6 -0.46 c0.5 -0.32 0.9 -0.74 1.18 -1.3 c0.3 -0.54 0.44 -1.16 0.44 -1.82 c0 -0.64 -0.14 -1.26 -0.44 -1.8 c-0.28 -0.54 -0.68 -0.96 -1.18 -1.28 c-0.48 -0.3 -1.02 -0.46 -1.6 -0.46 c-0.6 0 -1.14 0.16 -1.64 0.46 c-0.52 0.32 -0.92 0.74 -1.22 1.28 c-0.3 0.56 -0.44 1.16 -0.44 1.8 c0 0.66 0.14 1.28 0.44 1.82 c0.32 0.54 0.72 0.98 1.22 1.28 c0.5 0.32 1.04 0.48 1.64 0.48 z M100.27600000000001 20 c-1.08 0 -1.86 -0.22 -2.68 -0.66 c-0.8 -0.44 -1.44 -1.06 -1.88 -1.88 c-0.44 -0.8 -0.66 -1.76 -0.66 -2.86 l0 -7.04 c0 -0.14 0.12 -0.24 0.26 -0.24 l2.6 0 c0.14 0 0.24 0.1 0.24 0.24 l0 7.04 c0 0.8 0.22 1.42 0.64 1.86 s0.8 0.66 1.5 0.66 s1.06 -0.22 1.46 -0.64 c0.4 -0.44 0.6 -1.08 0.6 -1.88 l0 -7.04 c0 -0.14 0.12 -0.24 0.26 -0.24 l2.6 0 c0.14 0 0.26 0.1 0.26 0.24 l0 7.04 c0 1.1 -0.22 2.06 -0.66 2.86 c-0.42 0.82 -1.06 1.44 -1.86 1.88 s-1.6 0.66 -2.68 0.66 z M110.68400000000001 20 c-0.16 0 -0.26 -0.12 -0.26 -0.26 l0 -11.98 c0 -0.14 0.1 -0.26 0.26 -0.26 l4.88 0 c1.52 0 2.72 0.38 3.56 1.16 c1.24 1.12 1.66 3.24 1.06 4.8 c-0.22 0.56 -0.6 1.08 -1.08 1.46 c-0.28 0.22 -0.58 0.38 -0.88 0.54 c0.86 1.36 2.16 4.12 2.16 4.12 c0.02 0.04 0.06 0.1 0.06 0.16 c0 0.14 -0.12 0.26 -0.26 0.26 l-2.96 0 c-0.08 0 -0.18 -0.06 -0.22 -0.14 l-1.74 -3.82 c-0.62 0.04 -1.1 0.02 -1.74 0.02 l0 3.68 c0 0.14 -0.12 0.26 -0.26 0.26 l-2.58 0 z M113.524 13.280000000000001 c0 0 2.52 0.28 3.4 -0.3 c0.34 -0.22 0.54 -0.76 0.54 -1.16 c-0.02 -0.44 -0.24 -0.9 -0.6 -1.18 c-0.38 -0.32 -1.32 -0.42 -1.8 -0.42 l-1.54 0.04 l0 3.02 z M134.02 20 c-0.14 0 -0.26 -0.12 -0.26 -0.26 l0 -11.98 c0 -0.14 0.12 -0.26 0.26 -0.26 l4.78 0 c1.32 0 2.2 0.28 2.98 0.86 c1.08 0.78 1.52 2.26 1.02 3.52 c-0.26 0.64 -0.7 0.98 -1.3 1.3 c0.86 0.12 1.4 0.68 1.72 1.08 c0.46 0.6 0.7 1.32 0.7 2.16 c0 1.1 -0.44 2 -1.28 2.64 c-0.82 0.62 -1.94 0.94 -3.32 0.94 l-5.3 0 z M136.70000000000002 12.08 l1.96 0 c0.4 0 0.72 -0.08 0.94 -0.26 c0.2 -0.18 0.3 -0.42 0.3 -0.74 c0 -0.3 -0.1 -0.54 -0.3 -0.7 c-0.2 -0.18 -0.5 -0.26 -0.86 -0.26 l-2.04 0 l0 1.96 z M136.70000000000002 17.54 l2.34 0 c0.6 0 1.06 -0.12 1.4 -0.36 c0.3 -0.22 0.46 -0.52 0.46 -0.94 c0 -0.38 -0.16 -0.66 -0.46 -0.88 c-0.32 -0.22 -0.76 -0.34 -1.32 -0.34 l-2.42 0 l0 2.52 z M155.30800000000002 20 c-1.2 0 -2.3 -0.28 -3.26 -0.84 c-0.98 -0.56 -1.76 -1.36 -2.34 -2.32 c-0.56 -0.98 -0.84 -2.1 -0.84 -3.3 c0 -1.18 0.28 -2.28 0.84 -3.26 c0.58 -0.98 1.34 -1.76 2.32 -2.32 s2.08 -0.84 3.28 -0.84 c1.18 0 2.28 0.28 3.26 0.84 s1.76 1.34 2.32 2.32 c0.58 0.98 0.86 2.08 0.86 3.26 c0 1.2 -0.28 2.3 -0.86 3.28 c-0.56 0.98 -1.34 1.76 -2.32 2.34 c-0.98 0.56 -2.08 0.84 -3.26 0.84 z M155.348 17.12 c0.58 0 1.12 -0.16 1.6 -0.46 c0.5 -0.32 0.9 -0.74 1.18 -1.3 c0.3 -0.54 0.44 -1.16 0.44 -1.82 c0 -0.64 -0.14 -1.26 -0.44 -1.8 c-0.28 -0.54 -0.68 -0.96 -1.18 -1.28 c-0.48 -0.3 -1.02 -0.46 -1.6 -0.46 c-0.6 0 -1.14 0.16 -1.64 0.46 c-0.52 0.32 -0.92 0.74 -1.22 1.28 c-0.3 0.56 -0.44 1.16 -0.44 1.8 c0 0.66 0.14 1.28 0.44 1.82 c0.32 0.54 0.72 0.98 1.22 1.28 c0.5 0.32 1.04 0.48 1.64 0.48 z M169.99600000000004 20 c-0.14 0 -0.24 -0.12 -0.24 -0.26 l0 -4.76 l-4.24 -7.1 c-0.04 -0.08 -0.04 -0.18 0.02 -0.26 c0.04 -0.08 0.12 -0.12 0.22 -0.12 l2.6 0 c0.1 0 0.18 0.04 0.22 0.14 l2.72 4.44 l2.66 -4.44 c0.04 -0.08 0.12 -0.14 0.22 -0.14 l2.62 0 c0.08 0 0.18 0.04 0.22 0.12 s0.04 0.18 0 0.26 l-4.16 7.02 l0 4.84 c0 0.14 -0.12 0.26 -0.26 0.26 l-2.6 0 z"></path></g>
			</g>
		</svg>
	